<svg xmlns="http://www.w3.org/2000/svg" viewBox="0 0 640 400" font-family="'Segoe UI',Arial,sans-serif">
  <defs>
    <linearGradient id="ocBg" x1="0" y1="0" x2="0" y2="1">
      <stop offset="0" stop-color="#0c1424"/><stop offset="1" stop-color="#070d18"/>
    </linearGradient>
    <linearGradient id="ocAccent" x1="0" y1="0" x2="1" y2="0">
      <stop offset="0" stop-color="#38bdf8"/><stop offset="1" stop-color="#8b5cf6"/>
    </linearGradient>
  </defs>
  <rect x="0" y="0" width="640" height="400" rx="14" fill="url(#ocBg)" stroke="#1d2c49" stroke-width="1.5"/>

  <!-- sidebar -->
  <rect x="0" y="0" width="200" height="400" rx="14" fill="#0a1120"/>
  <rect x="186" y="0" width="14" height="400" fill="#0a1120"/>
  <circle cx="26" cy="28" r="11" fill="none" stroke="url(#ocAccent)" stroke-width="2"/>
  <circle cx="26" cy="28" r="3" fill="#38bdf8"/>
  <text x="46" y="33" fill="#e6eef8" font-size="14" font-weight="700">Orion Chat</text>
  <!-- search -->
  <rect x="16" y="52" width="168" height="26" rx="8" fill="#111c30"/>
  <text x="28" y="69" font-size="10" fill="#5e7390">Qidirish...</text>

  <!-- channel list -->
  <g font-size="11">
    <rect x="8" y="90" width="184" height="40" rx="9" fill="#15233c"/>
    <circle cx="28" cy="110" r="12" fill="#1f3a5f"/><text x="28" y="114" fill="#9ec5ff" font-size="11" text-anchor="middle">#</text>
    <text x="48" y="106" fill="#e6eef8" font-weight="600">DBA jamoa</text>
    <text x="48" y="120" fill="#6b7d99" font-size="9">Alert: PROD_PAY...</text>
    <circle cx="178" cy="104" r="7" fill="#ef4444"/><text x="178" y="107" fill="#fff" font-size="8" text-anchor="middle">3</text>

    <circle cx="28" cy="152" r="12" fill="#3a2f1f"/><text x="28" y="156" fill="#fbbf24" font-size="11" text-anchor="middle">#</text>
    <text x="48" y="148" fill="#cdd9ec" font-weight="600">DevOps</text>
    <text x="48" y="162" fill="#6b7d99" font-size="9">deploy tugadi ✓</text>

    <circle cx="28" cy="192" r="12" fill="#1f3a2f"/><text x="28" y="196" fill="#34d399" font-size="11" text-anchor="middle">@</text>
    <text x="48" y="188" fill="#cdd9ec" font-weight="600">Behruz</text>
    <text x="48" y="202" fill="#6b7d99" font-size="9">online</text>

    <circle cx="28" cy="232" r="12" fill="#2a1f3a"/><text x="28" y="236" fill="#c4b5fd" font-size="11" text-anchor="middle">#</text>
    <text x="48" y="228" fill="#cdd9ec" font-weight="600">Umumiy</text>
  </g>

  <!-- chat header -->
  <rect x="200" y="0" width="440" height="46" fill="#0d1830"/>
  <text x="220" y="22" fill="#e6eef8" font-size="13" font-weight="700"># DBA jamoa</text>
  <text x="220" y="37" fill="#6b7d99" font-size="10">8 a'zo · 3 onlayn</text>
  <circle cx="600" cy="23" r="4" fill="#34d399"/>

  <!-- messages -->
  <g font-size="11">
    <circle cx="222" cy="78" r="11" fill="#1f3a5f"/><text x="222" y="82" fill="#9ec5ff" text-anchor="middle">B</text>
    <text x="242" y="74" fill="#7dd3fc" font-weight="700" font-size="11">Behruz <tspan fill="#5e7390" font-weight="400">09:41</tspan></text>
    <rect x="242" y="82" width="300" height="30" rx="9" fill="#15233c"/>
    <text x="254" y="101" fill="#dbe6f4">PROD_PAY da lock muammosi bormi?</text>

    <circle cx="222" cy="130" r="11" fill="#3a2f1f"/><text x="222" y="134" fill="#fbbf24" text-anchor="middle">A</text>
    <text x="242" y="126" fill="#fbbf24" font-weight="700" font-size="11">Alert Bot <tspan fill="#5e7390" font-weight="400">09:41</tspan></text>
    <rect x="242" y="134" width="360" height="60" rx="9" fill="#1a0f0f" stroke="#7f1d1d" stroke-width="1"/>
    <text x="254" y="153" fill="#ff8a8a" font-weight="700">🔴 CRITICAL · PROD_PAY</text>
    <text x="254" y="170" fill="#d8b3b3" font-size="10">row lock contention · 17 blocked</text>
    <text x="254" y="185" fill="#9a7d7d" font-size="9">schema: BILLING · @dba_oncall</text>

    <circle cx="222" cy="214" r="11" fill="#1f3a2f"/><text x="222" y="218" fill="#34d399" text-anchor="middle">S</text>
    <text x="242" y="210" fill="#86efac" font-weight="700" font-size="11">Sardor <tspan fill="#5e7390" font-weight="400">09:42</tspan></text>
    <rect x="242" y="218" width="220" height="30" rx="9" fill="#15233c"/>
    <text x="254" y="237" fill="#dbe6f4">Ko'rdim, hal qilyapman 👍</text>

    <!-- voice message -->
    <circle cx="222" cy="266" r="11" fill="#1f3a5f"/><text x="222" y="270" fill="#9ec5ff" text-anchor="middle">B</text>
    <rect x="242" y="262" width="180" height="28" rx="14" fill="#15233c"/>
    <circle cx="258" cy="276" r="8" fill="#38bdf8"/><path d="M255 276 l5 -3 v6 z" fill="#0a1120"/>
    <g fill="#38bdf8"><rect x="272" y="272" width="2" height="8" rx="1"/><rect x="277" y="269" width="2" height="14" rx="1"/><rect x="282" y="266" width="2" height="20" rx="1"/><rect x="287" y="270" width="2" height="12" rx="1"/><rect x="292" y="273" width="2" height="6" rx="1"/><rect x="297" y="268" width="2" height="16" rx="1"/></g>
    <text x="406" y="280" fill="#5e7390" font-size="9">0:14</text>
  </g>

  <!-- input -->
  <rect x="216" y="364" width="408" height="26" rx="13" fill="#111c30"/>
  <text x="232" y="381" fill="#5e7390" font-size="11">Xabar yozing...</text>
  <circle cx="606" cy="377" r="13" fill="url(#ocAccent)"/>
  <path d="M600 377 l10 -4 l-3 8 l-2 -3 z" fill="#0a1120"/>
</svg>
