<svg xmlns="http://www.w3.org/2000/svg" viewBox="0 0 640 400" font-family="'Segoe UI',Arial,sans-serif">
  <defs>
    <linearGradient id="bg" x1="0" y1="0" x2="0" y2="1">
      <stop offset="0" stop-color="#0b1322"/>
      <stop offset="1" stop-color="#070d18"/>
    </linearGradient>
  </defs>
  <rect x="0" y="0" width="640" height="400" rx="14" fill="url(#bg)" stroke="#1d2c49"/>

  <!-- Header / headset motif -->
  <g transform="translate(24,26)">
    <path d="M0 14 A14 14 0 0 1 28 14" fill="none" stroke="#38bdf8" stroke-width="2.5"/>
    <rect x="-3" y="13" width="7" height="13" rx="3" fill="#7dd3fc"/>
    <rect x="24" y="13" width="7" height="13" rx="3" fill="#7dd3fc"/>
    <path d="M27 24 q6 2 6 9 v3" fill="none" stroke="#38bdf8" stroke-width="2.5"/>
    <ellipse cx="33" cy="37" rx="4" ry="2.5" fill="#34d399"/>
  </g>
  <text x="70" y="40" fill="#e6eef8" font-size="16" font-weight="600">Call Center</text>
  <text x="70" y="55" fill="#6b7d99" font-size="10">Live agent monitor</text>
  <circle cx="600" cy="38" r="5" fill="#34d399"/>
  <text x="592" y="42" fill="#6b7d99" font-size="9" text-anchor="end">ONLINE</text>

  <!-- Stat tiles -->
  <g transform="translate(24,78)">
    <rect x="0" y="0" width="186" height="62" rx="9" fill="#0f1c30" stroke="#1d2c49"/>
    <text x="14" y="22" fill="#6b7d99" font-size="10">Answered</text>
    <text x="14" y="46" fill="#34d399" font-size="22" font-weight="700">1,284</text>
    <circle cx="166" cy="20" r="9" fill="#0b2a1c"/>
    <path d="M161 20 l4 4 l7 -8" fill="none" stroke="#34d399" stroke-width="2"/>

    <rect x="201" y="0" width="186" height="62" rx="9" fill="#0f1c30" stroke="#1d2c49"/>
    <text x="215" y="22" fill="#6b7d99" font-size="10">Missed</text>
    <text x="215" y="46" fill="#ef4444" font-size="22" font-weight="700">37</text>
    <circle cx="367" cy="20" r="9" fill="#2a1414"/>
    <path d="M363 16 l8 8 M371 16 l-8 8" stroke="#ef4444" stroke-width="2"/>

    <rect x="402" y="0" width="186" height="62" rx="9" fill="#0f1c30" stroke="#1d2c49"/>
    <text x="416" y="22" fill="#6b7d99" font-size="10">Avg time</text>
    <text x="416" y="46" fill="#fbbf24" font-size="22" font-weight="700">2:48</text>
    <circle cx="568" cy="20" r="9" fill="#2a2410"/>
    <circle cx="568" cy="20" r="5.5" fill="none" stroke="#fbbf24" stroke-width="2"/>
    <path d="M568 20 l0 -3 M568 20 l3 1.5" stroke="#fbbf24" stroke-width="1.6"/>
  </g>

  <!-- Agent rows panel -->
  <g transform="translate(24,158)">
    <rect x="0" y="0" width="380" height="218" rx="10" fill="#0f1c30" stroke="#1d2c49"/>
    <text x="16" y="24" fill="#e6eef8" font-size="12" font-weight="600">Agents</text>
    <text x="364" y="24" fill="#6b7d99" font-size="9" text-anchor="end">status</text>

    <!-- row template -->
    <g transform="translate(16,40)">
      <!-- row 1 active -->
      <circle cx="14" cy="14" r="13" fill="#15314a"/>
      <circle cx="14" cy="10" r="5" fill="#7dd3fc"/>
      <path d="M5 22 a9 9 0 0 1 18 0" fill="#7dd3fc"/>
      <circle cx="24" cy="22" r="4" fill="#34d399" stroke="#0f1c30" stroke-width="1.5"/>
      <text x="38" y="12" fill="#e6eef8" font-size="11">Aziza K.</text>
      <text x="38" y="24" fill="#6b7d99" font-size="8.5">On call · 01:12</text>
      <text x="348" y="18" fill="#34d399" font-size="9" text-anchor="end">live</text>
    </g>
    <line x1="16" y1="78" x2="364" y2="78" stroke="#1d2c49"/>

    <g transform="translate(16,86)">
      <circle cx="14" cy="14" r="13" fill="#15314a"/>
      <circle cx="14" cy="10" r="5" fill="#8b5cf6"/>
      <path d="M5 22 a9 9 0 0 1 18 0" fill="#8b5cf6"/>
      <circle cx="24" cy="22" r="4" fill="#fbbf24" stroke="#0f1c30" stroke-width="1.5"/>
      <text x="38" y="12" fill="#e6eef8" font-size="11">Bek M.</text>
      <text x="38" y="24" fill="#6b7d99" font-size="8.5">Wrap-up · 00:24</text>
      <text x="348" y="18" fill="#fbbf24" font-size="9" text-anchor="end">busy</text>
    </g>
    <line x1="16" y1="124" x2="364" y2="124" stroke="#1d2c49"/>

    <g transform="translate(16,132)">
      <circle cx="14" cy="14" r="13" fill="#15314a"/>
      <circle cx="14" cy="10" r="5" fill="#38bdf8"/>
      <path d="M5 22 a9 9 0 0 1 18 0" fill="#38bdf8"/>
      <circle cx="24" cy="22" r="4" fill="#34d399" stroke="#0f1c30" stroke-width="1.5"/>
      <text x="38" y="12" fill="#e6eef8" font-size="11">Dilnoza T.</text>
      <text x="38" y="24" fill="#6b7d99" font-size="8.5">Available</text>
      <text x="348" y="18" fill="#34d399" font-size="9" text-anchor="end">free</text>
    </g>
    <line x1="16" y1="170" x2="364" y2="170" stroke="#1d2c49"/>

    <g transform="translate(16,178)">
      <circle cx="14" cy="14" r="13" fill="#15314a"/>
      <circle cx="14" cy="10" r="5" fill="#6b7d99"/>
      <path d="M5 22 a9 9 0 0 1 18 0" fill="#6b7d99"/>
      <circle cx="24" cy="22" r="4" fill="#6b7d99" stroke="#0f1c30" stroke-width="1.5"/>
      <text x="38" y="12" fill="#e6eef8" font-size="11">Sardor R.</text>
      <text x="38" y="24" fill="#6b7d99" font-size="8.5">Offline</text>
      <text x="348" y="18" fill="#6b7d99" font-size="9" text-anchor="end">away</text>
    </g>
  </g>

  <!-- Call queue panel -->
  <g transform="translate(420,158)">
    <rect x="0" y="0" width="196" height="218" rx="10" fill="#0f1c30" stroke="#1d2c49"/>
    <text x="16" y="24" fill="#e6eef8" font-size="12" font-weight="600">Queue</text>
    <text x="180" y="24" fill="#38bdf8" font-size="12" font-weight="700" text-anchor="end">6</text>

    <g transform="translate(16,38)">
      <rect x="0" y="0" width="164" height="26" rx="6" fill="#15314a"/>
      <circle cx="15" cy="13" r="4" fill="#34d399"/>
      <text x="28" y="16" fill="#e6eef8" font-size="9.5">+998 90 ··· 41</text>
      <text x="156" y="16" fill="#6b7d99" font-size="8.5" text-anchor="end">0:08</text>
    </g>
    <g transform="translate(16,72)">
      <rect x="0" y="0" width="164" height="26" rx="6" fill="#11243a"/>
      <circle cx="15" cy="13" r="4" fill="#fbbf24"/>
      <text x="28" y="16" fill="#e6eef8" font-size="9.5">+998 93 ··· 02</text>
      <text x="156" y="16" fill="#6b7d99" font-size="8.5" text-anchor="end">0:31</text>
    </g>
    <g transform="translate(16,106)">
      <rect x="0" y="0" width="164" height="26" rx="6" fill="#11243a"/>
      <circle cx="15" cy="13" r="4" fill="#fbbf24"/>
      <text x="28" y="16" fill="#e6eef8" font-size="9.5">+998 97 ··· 88</text>
      <text x="156" y="16" fill="#6b7d99" font-size="8.5" text-anchor="end">1:05</text>
    </g>
    <g transform="translate(16,140)">
      <rect x="0" y="0" width="164" height="26" rx="6" fill="#11243a"/>
      <circle cx="15" cy="13" r="4" fill="#ef4444"/>
      <text x="28" y="16" fill="#e6eef8" font-size="9.5">+998 91 ··· 19</text>
      <text x="156" y="16" fill="#ef4444" font-size="8.5" text-anchor="end">2:40</text>
    </g>

    <text x="16" y="190" fill="#6b7d99" font-size="8.5">Avg wait</text>
    <text x="180" y="190" fill="#7dd3fc" font-size="9" text-anchor="end">0:46</text>
    <rect x="16" y="198" width="164" height="6" rx="3" fill="#11243a"/>
    <rect x="16" y="198" width="92" height="6" rx="3" fill="#38bdf8"/>
  </g>
</svg>
