<svg xmlns="http://www.w3.org/2000/svg" viewBox="0 0 640 400" font-family="'Segoe UI',Arial,sans-serif">
  <defs>
    <linearGradient id="bg" x1="0" y1="0" x2="0" y2="1">
      <stop offset="0" stop-color="#0b1322"/>
      <stop offset="1" stop-color="#070d18"/>
    </linearGradient>
    <linearGradient id="feed" x1="0" y1="0" x2="1" y2="1">
      <stop offset="0" stop-color="#0f1d33"/>
      <stop offset="1" stop-color="#0a1426"/>
    </linearGradient>
  </defs>

  <rect x="0" y="0" width="640" height="400" rx="14" fill="url(#bg)" stroke="#1d2c49"/>

  <!-- Header -->
  <g>
    <!-- camera icon -->
    <rect x="28" y="26" width="34" height="22" rx="4" fill="#0f1d33" stroke="#38bdf8"/>
    <circle cx="45" cy="37" r="6.5" fill="none" stroke="#7dd3fc"/>
    <circle cx="45" cy="37" r="2.6" fill="#38bdf8"/>
    <rect x="58" y="31" width="9" height="12" rx="2" fill="#0f1d33" stroke="#38bdf8"/>
    <rect x="34" y="48" width="6" height="6" fill="#38bdf8"/>
    <text x="78" y="35" fill="#e6eef8" font-size="16" font-weight="600">NVR Surveillance</text>
    <text x="78" y="51" fill="#6b7d99" font-size="11">16-channel recorder</text>

    <!-- online status -->
    <circle cx="540" cy="38" r="5" fill="#34d399"/>
    <text x="552" y="42" fill="#34d399" font-size="12" font-weight="600">online</text>
    <circle cx="610" cy="38" r="13" fill="none" stroke="#1d2c49"/>
    <path d="M604 38a6 6 0 0 1 12 0" fill="none" stroke="#7dd3fc" stroke-width="1.6"/>
    <circle cx="610" cy="38" r="2" fill="#38bdf8"/>
  </g>

  <line x1="28" y1="66" x2="612" y2="66" stroke="#1d2c49"/>

  <!-- Camera feed grid 3x2 -->
  <!-- tile template helper applied inline -->

  <!-- CAM 01 (REC) -->
  <g>
    <rect x="28" y="80" width="186" height="142" rx="8" fill="url(#feed)" stroke="#1d2c49"/>
    <path d="M40 200 q40 -55 90 -30 t72 -8" fill="none" stroke="#16335a" stroke-width="6"/>
    <rect x="120" y="150" width="40" height="56" rx="3" fill="#0d2342" stroke="#38bdf8" stroke-width="0.8"/>
    <text x="38" y="96" fill="#e6eef8" font-size="10" font-weight="600">CAM 01</text>
    <circle cx="183" cy="92" r="4" fill="#ef4444"/>
    <text x="192" y="96" fill="#ef4444" font-size="9" font-weight="700">REC</text>
    <text x="38" y="214" fill="#6b7d99" font-size="9">2026-06-08 14:32:07</text>
  </g>

  <!-- CAM 02 -->
  <g>
    <rect x="227" y="80" width="186" height="142" rx="8" fill="url(#feed)" stroke="#1d2c49"/>
    <circle cx="320" cy="170" r="20" fill="#0d2342" stroke="#7dd3fc" stroke-width="0.8"/>
    <rect x="300" y="186" width="40" height="20" rx="3" fill="#0d2342"/>
    <line x1="240" y1="206" x2="400" y2="206" stroke="#16335a" stroke-width="3"/>
    <text x="237" y="96" fill="#e6eef8" font-size="10" font-weight="600">CAM 02</text>
    <circle cx="382" cy="92" r="4" fill="#ef4444"/>
    <text x="391" y="96" fill="#ef4444" font-size="9" font-weight="700">REC</text>
    <text x="237" y="214" fill="#6b7d99" font-size="9">2026-06-08 14:32:07</text>
  </g>

  <!-- CAM 03 -->
  <g>
    <rect x="426" y="80" width="186" height="142" rx="8" fill="url(#feed)" stroke="#1d2c49"/>
    <rect x="450" y="150" width="46" height="56" rx="2" fill="#0d2342" stroke="#16335a"/>
    <rect x="540" y="135" width="40" height="71" rx="2" fill="#0d2342" stroke="#16335a"/>
    <path d="M438 130 l60 -22 v98 h-60 z" fill="none" stroke="#16335a" stroke-width="2"/>
    <text x="436" y="96" fill="#e6eef8" font-size="10" font-weight="600">CAM 03</text>
    <circle cx="581" cy="92" r="4" fill="#ef4444"/>
    <text x="590" y="96" fill="#ef4444" font-size="9" font-weight="700">REC</text>
    <text x="436" y="214" fill="#6b7d99" font-size="9">2026-06-08 14:32:07</text>
  </g>

  <!-- CAM 04 -->
  <g>
    <rect x="28" y="232" width="186" height="138" rx="8" fill="url(#feed)" stroke="#1d2c49"/>
    <circle cx="90" cy="300" r="16" fill="#0d2342" stroke="#34d399" stroke-width="0.9"/>
    <path d="M40 350 q50 -40 140 -10" fill="none" stroke="#16335a" stroke-width="6"/>
    <text x="38" y="248" fill="#e6eef8" font-size="10" font-weight="600">CAM 04</text>
    <circle cx="183" cy="244" r="4" fill="#ef4444"/>
    <text x="192" y="248" fill="#ef4444" font-size="9" font-weight="700">REC</text>
    <text x="38" y="362" fill="#6b7d99" font-size="9">2026-06-08 14:32:07</text>
  </g>

  <!-- CAM 05 -->
  <g>
    <rect x="227" y="232" width="186" height="138" rx="8" fill="url(#feed)" stroke="#1d2c49"/>
    <rect x="250" y="295" width="56" height="44" rx="3" fill="#0d2342" stroke="#16335a"/>
    <rect x="330" y="280" width="56" height="59" rx="3" fill="#0d2342" stroke="#16335a"/>
    <line x1="240" y1="300" x2="400" y2="300" stroke="#16335a" stroke-width="2"/>
    <text x="237" y="248" fill="#e6eef8" font-size="10" font-weight="600">CAM 05</text>
    <circle cx="382" cy="244" r="4" fill="#ef4444"/>
    <text x="391" y="248" fill="#ef4444" font-size="9" font-weight="700">REC</text>
    <text x="237" y="362" fill="#6b7d99" font-size="9">2026-06-08 14:32:07</text>
  </g>

  <!-- CAM 06 (motion / yellow) -->
  <g>
    <rect x="426" y="232" width="186" height="138" rx="8" fill="url(#feed)" stroke="#1d2c49"/>
    <rect x="500" y="280" width="34" height="50" rx="4" fill="#0d2342" stroke="#fbbf24" stroke-width="1.2"/>
    <circle cx="517" cy="290" r="7" fill="#0d2342" stroke="#fbbf24"/>
    <path d="M438 352 q60 -30 150 -6" fill="none" stroke="#16335a" stroke-width="6"/>
    <text x="436" y="248" fill="#e6eef8" font-size="10" font-weight="600">CAM 06</text>
    <rect x="556" y="238" width="48" height="13" rx="3" fill="none" stroke="#fbbf24"/>
    <text x="562" y="248" fill="#fbbf24" font-size="8" font-weight="700">MOTION</text>
    <text x="436" y="362" fill="#6b7d99" font-size="9">2026-06-08 14:32:07</text>
  </g>
</svg>
