<svg xmlns="http://www.w3.org/2000/svg" viewBox="0 0 640 400" font-family="'Segoe UI',Arial,sans-serif">
  <defs>
    <linearGradient id="bg" x1="0" y1="0" x2="0" y2="1">
      <stop offset="0" stop-color="#0b1322"/>
      <stop offset="1" stop-color="#070d18"/>
    </linearGradient>
  </defs>
  <rect x="0" y="0" width="640" height="400" rx="14" fill="url(#bg)" stroke="#1d2c49"/>

  <!-- top bar -->
  <rect x="20" y="18" width="600" height="44" rx="9" fill="#0e1a30" stroke="#1d2c49"/>
  <circle cx="42" cy="40" r="6" fill="#38bdf8"/>
  <text x="58" y="45" font-size="16" font-weight="700" fill="#e6eef8">OrionDB Pro</text>
  <text x="165" y="45" font-size="15" fill="#6b7d99">·</text>
  <circle cx="558" cy="40" r="5" fill="#34d399"/>
  <text x="570" y="45" font-size="13" font-weight="700" fill="#34d399">LIVE</text>
  <text x="178" y="45" font-size="12" fill="#7dd3fc">DATABASES · 8 ONLINE</text>

  <!-- tiles -->
  <!-- row 1 -->
  <g>
    <rect x="20" y="82" width="146" height="86" rx="10" fill="#0e1a30" stroke="#1d2c49"/>
    <circle cx="40" cy="104" r="7" fill="#34d399"/>
    <text x="56" y="109" font-size="13" font-weight="600" fill="#e6eef8">ORCL-PROD</text>
    <text x="34" y="138" font-size="11" fill="#6b7d99">SESS</text>
    <text x="34" y="153" font-size="13" font-weight="700" fill="#7dd3fc">142</text>
    <text x="96" y="138" font-size="11" fill="#6b7d99">CPU</text>
    <text x="96" y="153" font-size="13" font-weight="700" fill="#34d399">38%</text>
  </g>
  <g>
    <rect x="178" y="82" width="146" height="86" rx="10" fill="#0e1a30" stroke="#1d2c49"/>
    <circle cx="198" cy="104" r="7" fill="#34d399"/>
    <text x="214" y="109" font-size="13" font-weight="600" fill="#e6eef8">PG-CORE</text>
    <text x="192" y="138" font-size="11" fill="#6b7d99">SESS</text>
    <text x="192" y="153" font-size="13" font-weight="700" fill="#7dd3fc">88</text>
    <text x="254" y="138" font-size="11" fill="#6b7d99">CPU</text>
    <text x="254" y="153" font-size="13" font-weight="700" fill="#34d399">21%</text>
  </g>
  <g>
    <rect x="336" y="82" width="146" height="86" rx="10" fill="#0e1a30" stroke="#fbbf24" stroke-opacity="0.5"/>
    <circle cx="356" cy="104" r="7" fill="#fbbf24"/>
    <text x="372" y="109" font-size="13" font-weight="600" fill="#e6eef8">MSSQL-RPT</text>
    <text x="350" y="138" font-size="11" fill="#6b7d99">SESS</text>
    <text x="350" y="153" font-size="13" font-weight="700" fill="#7dd3fc">211</text>
    <text x="412" y="138" font-size="11" fill="#6b7d99">CPU</text>
    <text x="412" y="153" font-size="13" font-weight="700" fill="#fbbf24">74%</text>
  </g>
  <g>
    <rect x="494" y="82" width="126" height="86" rx="10" fill="#0e1a30" stroke="#1d2c49"/>
    <circle cx="514" cy="104" r="7" fill="#34d399"/>
    <text x="530" y="109" font-size="13" font-weight="600" fill="#e6eef8">MY-WEB</text>
    <text x="508" y="138" font-size="11" fill="#6b7d99">SESS</text>
    <text x="508" y="153" font-size="13" font-weight="700" fill="#7dd3fc">57</text>
    <text x="572" y="138" font-size="11" fill="#6b7d99">CPU</text>
    <text x="572" y="153" font-size="13" font-weight="700" fill="#34d399">16%</text>
  </g>

  <!-- row 2 -->
  <!-- RED pulsing tile -->
  <g>
    <rect x="20" y="184" width="146" height="86" rx="10" fill="#1a0e12" stroke="#ef4444">
      <animate attributeName="stroke-opacity" values="1;0.25;1" dur="1.6s" repeatCount="indefinite"/>
    </rect>
    <circle cx="40" cy="206" r="7" fill="#ef4444">
      <animate attributeName="r" values="7;10;7" dur="1.6s" repeatCount="indefinite"/>
      <animate attributeName="fill-opacity" values="1;0.5;1" dur="1.6s" repeatCount="indefinite"/>
    </circle>
    <text x="58" y="211" font-size="13" font-weight="700" fill="#e6eef8">ORCL-DWH</text>
    <text x="34" y="240" font-size="11" fill="#6b7d99">SESS</text>
    <text x="34" y="255" font-size="13" font-weight="700" fill="#7dd3fc">498</text>
    <text x="96" y="240" font-size="11" fill="#6b7d99">CPU</text>
    <text x="96" y="255" font-size="13" font-weight="700" fill="#ef4444">97%</text>
  </g>
  <g>
    <rect x="178" y="184" width="146" height="86" rx="10" fill="#0e1a30" stroke="#1d2c49"/>
    <circle cx="198" cy="206" r="7" fill="#34d399"/>
    <text x="214" y="211" font-size="13" font-weight="600" fill="#e6eef8">PG-BILL</text>
    <text x="192" y="240" font-size="11" fill="#6b7d99">SESS</text>
    <text x="192" y="255" font-size="13" font-weight="700" fill="#7dd3fc">73</text>
    <text x="254" y="240" font-size="11" fill="#6b7d99">CPU</text>
    <text x="254" y="255" font-size="13" font-weight="700" fill="#34d399">29%</text>
  </g>
  <g>
    <rect x="336" y="184" width="146" height="86" rx="10" fill="#0e1a30" stroke="#1d2c49"/>
    <circle cx="356" cy="206" r="7" fill="#34d399"/>
    <text x="372" y="211" font-size="13" font-weight="600" fill="#e6eef8">MONGO-IOT</text>
    <text x="350" y="240" font-size="11" fill="#6b7d99">SESS</text>
    <text x="350" y="255" font-size="13" font-weight="700" fill="#7dd3fc">120</text>
    <text x="412" y="240" font-size="11" fill="#6b7d99">CPU</text>
    <text x="412" y="255" font-size="13" font-weight="700" fill="#34d399">44%</text>
  </g>
  <g>
    <rect x="494" y="184" width="126" height="86" rx="10" fill="#0e1a30" stroke="#fbbf24" stroke-opacity="0.5"/>
    <circle cx="514" cy="206" r="7" fill="#fbbf24"/>
    <text x="530" y="211" font-size="13" font-weight="600" fill="#e6eef8">REDIS-CA</text>
    <text x="508" y="240" font-size="11" fill="#6b7d99">SESS</text>
    <text x="508" y="255" font-size="13" font-weight="700" fill="#7dd3fc">305</text>
    <text x="572" y="240" font-size="11" fill="#6b7d99">CPU</text>
    <text x="572" y="255" font-size="13" font-weight="700" fill="#fbbf24">68%</text>
  </g>

  <!-- footer status legend -->
  <rect x="20" y="286" width="600" height="92" rx="10" fill="#0e1a30" stroke="#1d2c49"/>
  <text x="36" y="312" font-size="12" font-weight="700" fill="#e6eef8">CLUSTER HEALTH</text>

  <circle cx="42" cy="338" r="6" fill="#34d399"/>
  <text x="56" y="342" font-size="12" fill="#6b7d99">Healthy</text>
  <text x="56" y="360" font-size="14" font-weight="700" fill="#34d399">5</text>

  <circle cx="152" cy="338" r="6" fill="#fbbf24"/>
  <text x="166" y="342" font-size="12" fill="#6b7d99">Warning</text>
  <text x="166" y="360" font-size="14" font-weight="700" fill="#fbbf24">2</text>

  <circle cx="266" cy="338" r="6" fill="#ef4444"/>
  <text x="280" y="342" font-size="12" fill="#6b7d99">Critical</text>
  <text x="280" y="360" font-size="14" font-weight="700" fill="#ef4444">1</text>

  <!-- mini activity bars -->
  <g fill="#8b5cf6">
    <rect x="470" y="350" width="8" height="14" rx="2"/>
    <rect x="484" y="342" width="8" height="22" rx="2"/>
    <rect x="498" y="334" width="8" height="30" rx="2" fill="#38bdf8"/>
    <rect x="512" y="346" width="8" height="18" rx="2"/>
    <rect x="526" y="338" width="8" height="26" rx="2" fill="#7dd3fc"/>
    <rect x="540" y="352" width="8" height="12" rx="2"/>
    <rect x="554" y="330" width="8" height="34" rx="2" fill="#38bdf8"/>
    <rect x="568" y="344" width="8" height="20" rx="2"/>
    <rect x="582" y="348" width="8" height="16" rx="2" fill="#7dd3fc"/>
    <rect x="596" y="336" width="8" height="28" rx="2"/>
  </g>
  <text x="470" y="324" font-size="11" fill="#6b7d99">THROUGHPUT 60s</text>
</svg>
